<svg width="1200" height="400" viewBox="0 0 1200 400" fill="none" xmlns="http://www.w3.org/2000/svg">
  <defs>
    <linearGradient id="grad1" x1="0%" y1="0%" x2="100%" y2="0%">
      <stop offset="0%" style="stop-color:#1877F2;stop-opacity:1" />
      <stop offset="100%" style="stop-color:#0A58CA;stop-opacity:1" />
    </linearGradient>
    <style>
      .title { 
        font: 600 48px 'Segoe UI', sans-serif;
        fill: white;
        text-shadow: 2px 2px 4px rgba(0,0,0,0.2);
      }
      .subtitle {
        font: 400 32px 'Segoe UI', sans-serif;
        fill: rgba(255,255,255,0.9);
      }
    </style>
  </defs>

  <!-- Star Symbol -->
  <symbol id="star" viewBox="0 0 24 24">
    <path d="M12 17.27L18.18 21l-1.64-7.03L22 9.24l-7.19-.61L12 2 9.19 8.63 2 9.24l5.46 4.73L5.82 21z" fill="currentColor"/>
  </symbol>

  <rect width="1200" height="400" fill="url(#grad1)" rx="20"/>
  
  <!-- Star Cluster -->
  <g transform="translate(900 50)" opacity="0.9">
    <use href="#star" x="0" y="0" width="40" height="40" fill="#FFD700"/>
    <use href="#star" x="50" y="-20" width="35" height="35" fill="#FFFFFF"/>
    <use href="#star" x="100" y="10" width="30" height="30" fill="#FFD700"/>
  </g>
  
  <!-- Achievement Text -->
  <text x="980" y="120" font-size="28" fill="white" font-family="'Segoe UI', sans-serif">
    15k ★ Followers
  </text>
  
  <g transform="translate(100 100)">
    <!-- Facebook Logo -->
    <path d="M0 40C0 17.9086 17.9086 0 40 0H80C102.091 0 120 17.9086 120 40V80C120 102.091 102.091 120 80 120H40C17.9086 120 0 102.091 0 80V40Z" fill="white"/>
    <path d="M82.5 40H70V30C70 26.5 72 25 75 25C78 25 82 25 82 25V10H72C59.5 10 55 17.5 55 29V40H45V60H55V110H70V60H80L82.5 40Z" fill="#1877F2"/>
  </g>

  <!-- Decorative Elements -->
  <path d="M1000 200c50 0 100-50 100-100s50-100 100-100" stroke="white" stroke-width="2" stroke-opacity="0.1"/>
  <circle cx="1050" cy="300" r="40" fill="white" fill-opacity="0.1"/>
</svg>